<!DOCTYPE svg PUBLIC "-//W3C//DTD SVG 20010904//EN" "http://www.w3.org/TR/2001/REC-SVG-20010904/DTD/svg10.dtd">
<svg version="1.0" xmlns="http://www.w3.org/2000/svg" width="225px" height="225px" viewBox="0 0 2250 2250" preserveAspectRatio="xMidYMid meet">
<g id="layer101" fill="#010101" stroke="none">
 <path d="M1095 2139 c-16 -5 -36 -16 -42 -26 -15 -20 -17 -67 -3 -93 7 -13 2 -33 -24 -81 -18 -35 -241 -477 -495 -982 -318 -632 -456 -917 -444 -913 10 3 207 55 438 116 231 62 459 122 507 135 l87 23 353 -94 c194 -52 428 -114 520 -138 l168 -44 -490 977 c-483 962 -490 977 -482 1017 15 71 -29 120 -93 103z m75 -58 c14 -28 -4 -71 -30 -71 -23 0 -41 31 -22 38 7 2 12 9 12 16 0 10 19 36 27 36 1 0 7 -9 13 -19z m-307 -957 c8 -8 -161 -344 -173 -344 -21 0 -8 35 70 190 75 151 88 169 103 154z m615 -181 c45 -93 82 -171 82 -175 0 -5 -6 -8 -14 -8 -14 0 -176 307 -176 334 0 46 34 -1 108 -151z"/>
 </g>

</svg>